<svg width="106" height="40" viewBox="0 0 106 40" fill="none" xmlns="http://www.w3.org/2000/svg">
<g clip-path="url(#clip0_7013_9519)">
<path d="M10.0994 19.2117L4.18555 15.8568V9.43713L16.1694 9.42969L52.0242 23.7642L22.3584 19.2042L10.0994 19.2117Z" fill="#27996B"/>
<path d="M51.7944 22.9842L16.5645 9.05887L22.1435 5.83789L51.8019 22.9619C51.8019 22.9619 51.8019 22.9842 51.8019 22.9768" fill="#27996B"/>
<path d="M31.4119 7.45898H42.9643L52.166 22.5002L28.7637 8.99137L31.4119 7.45898Z" fill="#27996B"/>
<path d="M52.2996 4.19299L52.255 21.5997L43.5293 7.36934L49.0861 4.18555L52.2996 4.19299Z" fill="#27996B"/>
<path d="M50.2313 35.8154L22.1426 19.7402L53.1399 24.4862L55.8699 26.0557V32.5647L50.2313 35.8154Z" fill="#27996B"/>
</g>
<path d="M62.643 11.9675C62.2674 12.3097 61.75 12.5016 61.1909 12.5016C60.7736 12.5016 60.3313 12.3848 60.0142 12.1928C59.3049 11.7756 58.8125 10.9911 58.8125 10.0565C58.8125 9.12181 59.3132 8.32902 60.0226 7.91176C60.3397 7.71982 60.7319 7.61133 61.1742 7.61133C61.6999 7.61133 62.2173 7.76989 62.643 8.13708V7.71147H63.5609V12.4098H62.643V11.9842V11.9675ZM62.6096 9.17188C62.3175 8.79635 61.8418 8.50427 61.2743 8.50427C60.3647 8.50427 59.7639 9.2303 59.7639 10.0565C59.7639 10.8826 60.4148 11.6087 61.3244 11.6087C61.8001 11.6087 62.2925 11.3667 62.6096 10.9411V9.18023V9.17188Z" fill="#27996B"/>
<path d="M65.1973 10.2489C65.2473 11.0417 65.8983 11.6676 66.7161 11.6676C67.4171 11.6676 67.7926 11.3255 68.068 11.025L68.6856 11.6176C68.3351 12.0682 67.6675 12.4938 66.7078 12.4938C65.3391 12.4938 64.2793 11.4507 64.2793 10.0487C64.2793 8.64667 65.239 7.60352 66.5659 7.60352C67.8928 7.60352 68.8274 8.66336 68.8274 10.0487C68.8274 10.0904 68.8274 10.1571 68.8191 10.2489H65.2056H65.1973ZM65.2807 9.44781H67.8344C67.6925 8.84695 67.1584 8.42969 66.5993 8.42969C65.9901 8.42969 65.4393 8.83861 65.2807 9.44781Z" fill="#27996B"/>
<path d="M72.2569 8.53676C72.1484 8.50338 72.04 8.49503 71.8897 8.49503C71.3974 8.49503 70.88 8.83719 70.6213 9.28783V12.3922H69.6699V7.69389H70.5879V8.23633C70.8132 7.91921 71.3056 7.59375 71.9982 7.59375C72.0984 7.59375 72.2569 7.6021 72.3654 7.62713L72.2569 8.53676Z" fill="#27996B"/>
<path d="M74.9773 7.60352C76.3626 7.60352 77.4057 8.65501 77.4057 10.0487C77.4057 11.4423 76.3626 12.4938 74.9773 12.4938C73.592 12.4938 72.5488 11.4423 72.5488 10.0487C72.5488 8.65501 73.592 7.60352 74.9773 7.60352ZM74.9773 11.6009C75.8452 11.6009 76.4544 10.9082 76.4544 10.0487C76.4544 9.1891 75.8452 8.49645 74.9773 8.49645C74.1094 8.49645 73.5002 9.1891 73.5002 10.0487C73.5002 10.9082 74.1094 11.6009 74.9773 11.6009Z" fill="#27996B"/>
<path d="M79.133 14.7957H78.1816V7.70224H79.0996V8.12784C79.5252 7.76065 80.0343 7.59375 80.5684 7.59375C81.0107 7.59375 81.3945 7.70224 81.72 7.89418C82.4293 8.31144 82.9301 9.10423 82.9301 10.0389C82.9301 10.9736 82.4377 11.758 81.7284 12.1753C81.4112 12.3672 80.9689 12.484 80.5517 12.484C79.9925 12.484 79.5169 12.3004 79.133 11.975V14.779V14.7957ZM79.133 10.9318C79.4501 11.3658 79.9425 11.5994 80.4182 11.5994C81.3278 11.5994 81.9787 10.8901 81.9787 10.0472C81.9787 9.20437 81.3779 8.49503 80.4682 8.49503C79.9008 8.49503 79.4167 8.78711 79.133 9.16265V10.9235V10.9318Z" fill="#27996B"/>
<path d="M85.8679 7.60352C87.2532 7.60352 88.2964 8.65501 88.2964 10.0487C88.2964 11.4423 87.2532 12.4938 85.8679 12.4938C84.4826 12.4938 83.4395 11.4423 83.4395 10.0487C83.4395 8.65501 84.4826 7.60352 85.8679 7.60352ZM85.8679 11.6009C86.7358 11.6009 87.345 10.9082 87.345 10.0487C87.345 9.1891 86.7358 8.49645 85.8679 8.49645C85 8.49645 84.3908 9.1891 84.3908 10.0487C84.3908 10.9082 85 11.6009 85.8679 11.6009Z" fill="#27996B"/>
<path d="M91.5929 8.53676C91.4844 8.50338 91.3759 8.49503 91.2257 8.49503C90.7333 8.49503 90.2159 8.83719 89.9572 9.28783V12.3922H89.0059V7.69389H89.9238V8.23633C90.1492 7.91921 90.6415 7.59375 91.3342 7.59375C91.4343 7.59375 91.5929 7.6021 91.7014 7.62713L91.5929 8.53676Z" fill="#27996B"/>
<path d="M95.6982 12.3928C95.5146 12.4512 95.2308 12.4929 94.9554 12.4929C94.3629 12.4929 93.929 12.2843 93.6286 11.9421C93.3448 11.6334 93.2447 11.1994 93.2447 10.6904V8.54564H92.043V7.69443H93.2447V6.39258H94.196V7.69443H95.6982V8.54564H94.196V10.7404C94.196 10.9908 94.2127 11.1994 94.3379 11.3413C94.4714 11.4998 94.7385 11.5916 94.9888 11.5916C95.1307 11.5916 95.3727 11.5749 95.5062 11.5332L95.6982 12.3928Z" fill="#27996B"/>
<path d="M98.4363 7.60352C99.8216 7.60352 100.865 8.65501 100.865 10.0487C100.865 11.4423 99.8216 12.4938 98.4363 12.4938C97.051 12.4938 96.0078 11.4423 96.0078 10.0487C96.0078 8.65501 97.051 7.60352 98.4363 7.60352ZM98.4363 11.6009C99.3042 11.6009 99.9134 10.9082 99.9134 10.0487C99.9134 9.1891 99.3042 8.49645 98.4363 8.49645C97.5684 8.49645 96.9592 9.1891 96.9592 10.0487C96.9592 10.9082 97.5684 11.6009 98.4363 11.6009Z" fill="#27996B"/>
<path d="M62.6429 21.8953C62.2674 22.2374 61.75 22.4294 61.1909 22.4294C60.7736 22.4294 60.3313 22.3125 60.0142 22.1206C59.3049 21.7033 58.8125 20.9189 58.8125 19.9842C58.8125 19.0496 59.3132 18.2568 60.0226 17.8395C60.3397 17.6476 60.7319 17.5391 61.1742 17.5391C61.6833 17.5391 62.1923 17.6976 62.6096 18.0481V15.2441H63.5609V22.3376H62.6429V21.912V21.8953ZM62.6096 19.0996C62.3175 18.7241 61.8418 18.432 61.2743 18.432C60.3647 18.432 59.7639 19.158 59.7639 19.9842C59.7639 20.8104 60.4148 21.5364 61.3244 21.5364C61.8001 21.5364 62.2925 21.2944 62.6096 20.8688V19.108V19.0996Z" fill="#27996B"/>
<path d="M65.1293 15.3359C65.4798 15.3359 65.7635 15.6197 65.7635 15.9618C65.7635 16.304 65.4798 16.5794 65.1293 16.5794C64.7788 16.5794 64.5117 16.3123 64.5117 15.9618C64.5117 15.6113 64.7788 15.3359 65.1293 15.3359ZM64.6619 17.6309H65.6133V22.3292H64.6619V17.6309Z" fill="#27996B"/>
<path d="M74.1334 21.3278C73.7411 21.9787 72.9066 22.4294 72.0471 22.4294C70.595 22.4294 69.5352 21.3695 69.5352 19.9842C69.5352 18.5989 70.57 17.5391 71.9803 17.5391C72.7981 17.5391 73.5409 17.948 73.9748 18.5572L73.2738 19.1497C73.0151 18.7908 72.5728 18.4403 71.972 18.4403C71.1208 18.4403 70.4698 19.0996 70.4698 19.9926C70.4698 20.8855 71.1291 21.5448 72.0304 21.5448C72.6479 21.5448 73.0902 21.2193 73.3906 20.8187L74.1167 21.3445L74.1334 21.3278Z" fill="#27996B"/>
<path d="M78.3578 21.8953C77.9823 22.2374 77.4648 22.4294 76.9057 22.4294C76.4885 22.4294 76.0462 22.3125 75.7291 22.1206C75.0197 21.7033 74.5273 20.9189 74.5273 19.9842C74.5273 19.0495 75.0281 18.2568 75.7374 17.8395C76.0545 17.6476 76.4467 17.5391 76.889 17.5391C77.4148 17.5391 77.9322 17.6976 78.3578 18.0648V17.6392H79.2758V22.3376H78.3578V21.912V21.8953ZM78.3244 19.0996C78.0323 18.7241 77.5567 18.432 76.9892 18.432C76.0795 18.432 75.4787 19.158 75.4787 19.9842C75.4787 20.8104 76.1296 21.5364 77.0392 21.5364C77.5149 21.5364 78.0073 21.2944 78.3244 20.8688V19.108V19.0996Z" fill="#27996B"/>
<path d="M83.456 22.3283C83.2724 22.3867 82.9887 22.4285 82.7133 22.4285C82.1208 22.4285 81.6868 22.2198 81.3864 21.8777C81.1026 21.5689 81.0025 21.135 81.0025 20.6259V18.4812H79.8008V17.63H81.0025V16.3281H81.9538V17.63H83.456V18.4812H81.9538V20.676C81.9538 20.9263 81.9705 21.135 82.0957 21.2768C82.2292 21.4354 82.4963 21.5272 82.7466 21.5272C82.8885 21.5272 83.1305 21.5105 83.264 21.4688L83.456 22.3283Z" fill="#27996B"/>
<path d="M87.5863 21.8953C87.2108 22.2374 86.6934 22.4294 86.1342 22.4294C85.717 22.4294 85.2747 22.3125 84.9576 22.1206C84.2482 21.7033 83.7559 20.9189 83.7559 19.9842C83.7559 19.0495 84.2566 18.2568 84.9659 17.8395C85.283 17.6476 85.6753 17.5391 86.1176 17.5391C86.6433 17.5391 87.1607 17.6976 87.5863 18.0648V17.6392H88.5043V22.3376H87.5863V21.912V21.8953ZM87.5529 19.0996C87.2608 18.7241 86.7852 18.432 86.2177 18.432C85.3081 18.432 84.7072 19.158 84.7072 19.9842C84.7072 20.8104 85.3581 21.5364 86.2678 21.5364C86.7434 21.5364 87.2358 21.2944 87.5529 20.8688V19.108V19.0996Z" fill="#27996B"/>
<path d="M90.399 18.082C90.6493 17.84 91.125 17.5312 91.8093 17.5312C92.4936 17.5312 93.1195 17.8484 93.5201 18.3574C93.8205 18.733 93.9791 19.217 93.9791 20.0265V22.3214H93.0277V19.9764C93.0277 19.3755 92.9192 19.1001 92.744 18.8832C92.527 18.6078 92.1598 18.4242 91.7759 18.4242C91.1584 18.4242 90.7078 18.758 90.424 19.0918V22.3214H89.4727V17.623H90.3906V18.0737L90.399 18.082Z" fill="#27996B"/>
<path d="M95.4396 15.3359C95.7901 15.3359 96.0071 15.6113 96.0071 15.9618C96.0071 16.3123 95.7234 16.5794 95.3812 16.5794C95.0391 16.5794 94.7637 16.3123 94.7637 15.9618C94.7637 15.6113 95.0891 15.3359 95.4396 15.3359ZM94.9055 17.6309H95.8569V22.3292H94.9055V17.6309Z" fill="#27996B"/>
<path d="M100.364 21.8953C99.9881 22.2374 99.4707 22.4294 98.9116 22.4294C98.4943 22.4294 98.052 22.3125 97.7349 22.1206C97.0256 21.7033 96.5332 20.9189 96.5332 19.9842C96.5332 19.0495 97.0339 18.2568 97.7433 17.8395C98.0604 17.6476 98.4526 17.5391 98.8949 17.5391C99.4206 17.5391 99.938 17.6976 100.364 18.0648V17.6392H101.282V22.3376H100.364V21.912V21.8953ZM100.33 19.0996C100.038 18.7241 99.5625 18.432 98.995 18.432C98.0854 18.432 97.4846 19.158 97.4846 19.9842C97.4846 20.8104 98.1355 21.5364 99.0451 21.5364C99.5208 21.5364 100.013 21.2944 100.33 20.8688V19.108V19.0996Z" fill="#27996B"/>
<defs>
<clipPath id="clip0_7013_9519">
<rect width="51.6845" height="31.6296" fill="white" transform="translate(4.18555 4.18555)"/>
</clipPath>
</defs>
</svg>
